<?xml version="1.0" encoding="UTF-8"?>
<svg id="uuid-fd27581c-1f37-4ef7-be5b-a8377bcf0a3b" data-name="Layer 1" xmlns="http://www.w3.org/2000/svg" viewBox="0 0 340.19 199.31">
  <g>
    <path d="m88.52,54.97l14.53,27.33c2.37,4.46,2.71,9.79,1,14.61l-13.96,38.56c-8.84,24.5-19.43,35.12-29.5,40.47-22.73,12.08-45.72,6.62-60.07-9.58-.98-1.07-.54-2.78.76-3.47h0c.73-.39,1.6-.32,2.31.04,11.11,6.8,21.68,9.44,33.29,3.27,9.25-4.92,13.71-16.71,17.31-26.78l30.46-84.09c.56-1.89,2.99-2.01,3.87-.36Z" style="fill: #c90e0e;"/>
    <path d="m36.52,127.53l-14.53-27.33c-2.37-4.46-2.71-9.79-1-14.61l13.96-38.56c8.84-24.5,19.43-35.12,29.5-40.47C87.17-5.53,110.17-.07,124.51,16.13c.98,1.07.54,2.78-.76,3.47h0c-.73.39-1.6.32-2.31-.04-11.11-6.8-21.68-9.44-33.29-3.27-9.25,4.92-13.71,16.71-17.31,26.78l-30.46,84.09c-.6,1.8-2.99,2.01-3.87.36Z" style="fill: #c90e0e;"/>
  </g>
  <g>
    <path d="m150.35,81.44v11.43c0,4.2-.21,7.27-.63,9.23s-1.32,3.79-2.71,5.48c-1.38,1.7-3.16,2.95-5.33,3.76-2.17.81-4.66,1.21-7.47,1.21-3.14,0-5.8-.35-7.98-1.04s-3.87-1.73-5.08-3.13c-1.21-1.39-2.07-3.08-2.58-5.06-.52-1.98-.77-4.95-.77-8.91v-11.95c0-4.34.47-7.72,1.41-10.16.94-2.44,2.62-4.39,5.06-5.87,2.44-1.48,5.55-2.21,9.35-2.21,3.19,0,5.92.47,8.21,1.42s4.05,2.19,5.29,3.71c1.24,1.52,2.09,3.09,2.55,4.71s.69,4.08.69,7.38Zm-14.2-3.52c0-2.39-.13-3.9-.39-4.52-.26-.62-.81-.93-1.65-.93s-1.41.31-1.69.93-.42,2.13-.42,4.52v21.06c0,2.2.14,3.64.42,4.31s.83,1,1.65,1,1.4-.3,1.67-.91c.27-.61.4-1.92.4-3.94v-21.52Z"/>
    <path d="m173.13,54.8v7.21c-2.93,0-4.66.14-5.19.4-.53.27-.79,1.04-.79,2.3v1.48h5.98v7.38h-3.38v38.14h-14.2v-38.14h-2.92v-7.38h2.92c0-3.07.11-5.12.32-6.15.21-1.03.73-1.95,1.56-2.76.83-.81,2-1.42,3.5-1.85,1.5-.42,3.83-.63,7-.63h5.2Z"/>
    <path d="m190.82,58.84v7.35h3.83v7.38h-3.83v24.96c0,3.07.16,4.78.47,5.13s1.63.53,3.96.53v7.52h-5.73c-3.23,0-5.54-.13-6.93-.4-1.38-.27-2.6-.89-3.66-1.86s-1.71-2.09-1.97-3.34c-.26-1.25-.39-4.2-.39-8.84v-23.7h-3.06v-7.38h3.06v-7.35h14.24Z"/>
    <path d="m243.69,65.06l-5.67,46.65h-15.42c-.84-5.7-1.82-13.21-2.94-22.54-.38,4.1-.92,8.24-1.6,12.41l-1.56,10.12h-15.45l-6.02-46.65h12.24c.09,1.22,1.13,10.12,3.1,26.72.16-1.71,1.22-10.61,3.19-26.72h11.76l2.87,26.72c.46-7.8,1.54-16.71,3.26-26.72h12.23Z"/>
    <path d="m258.67,83.13h-13.32v-3.13c0-3.61.42-6.39,1.25-8.35.83-1.96,2.5-3.69,5.01-5.19,2.51-1.5,5.77-2.25,9.77-2.25,4.8,0,8.43.85,10.86,2.55,2.44,1.7,3.9,3.79,4.39,6.26s.74,7.56.74,15.28v23.41h-13.82v-4.16c-.87,1.67-1.99,2.92-3.36,3.75-1.37.83-3.01,1.25-4.9,1.25-2.48,0-4.76-.7-6.84-2.09s-3.11-4.45-3.11-9.16v-3.83c0-3.49.55-5.87,1.65-7.14s3.83-2.74,8.19-4.43c4.66-1.83,7.16-3.06,7.49-3.69s.49-1.92.49-3.87c0-2.44-.18-4.03-.54-4.76s-.97-1.11-1.81-1.11c-.96,0-1.56.31-1.79.93s-.35,2.23-.35,4.83v4.89Zm4.5,6.4c-2.27,1.66-3.59,3.06-3.96,4.18s-.54,2.74-.54,4.85c0,2.41.16,3.97.47,4.68s.94,1.05,1.88,1.05,1.47-.28,1.74-.83.4-2,.4-4.34v-9.6Z"/>
    <path d="m296.46,65.06l-.56,6.13c2.06-4.39,5.05-6.72,8.96-6.98v16.42c-2.6,0-4.51.35-5.73,1.05s-1.97,1.68-2.25,2.94-.42,4.14-.42,8.67v18.42h-14.2v-46.65h14.2Z"/>
    <path d="m340.19,89.21h-18.39v10.09c0,2.11.15,3.47.46,4.08s.89.91,1.76.91c1.08,0,1.8-.4,2.16-1.21s.54-2.37.54-4.69v-6.15h13.46v3.45c0,2.88-.18,5.1-.54,6.64s-1.21,3.2-2.55,4.96-3.03,3.08-5.08,3.96-4.62,1.32-7.72,1.32-5.65-.43-7.95-1.3-4.08-2.06-5.36-3.57-2.16-3.18-2.65-4.99-.74-4.46-.74-7.93v-13.61c0-4.08.55-7.29,1.65-9.65s2.91-4.16,5.41-5.41c2.51-1.25,5.39-1.88,8.65-1.88,3.98,0,7.27.76,9.86,2.27s4.41,3.52,5.45,6.01,1.56,6.01,1.56,10.53v6.19Zm-14.24-7.59v-3.41c0-2.41-.13-3.97-.39-4.68s-.79-1.05-1.58-1.05c-.98,0-1.59.3-1.83.9s-.35,2.21-.35,4.83v3.41h4.15Z"/>
    <path d="m152.28,141.19v38.04c0,4.31-.14,7.34-.42,9.09s-1.11,3.54-2.5,5.38c-1.38,1.84-3.21,3.23-5.47,4.18-2.26.95-4.93,1.42-8,1.42-3.4,0-6.4-.56-9-1.69s-4.55-2.59-5.84-4.39c-1.29-1.8-2.05-3.71-2.29-5.71-.23-2-.35-6.22-.35-12.64v-33.68h14.8v42.68c0,2.48.13,4.07.4,4.76.27.69.81,1.04,1.63,1.04.94,0,1.54-.38,1.81-1.14.27-.76.4-2.56.4-5.4v-41.94h14.8Z"/>
    <path d="m158.02,141.19h11.07c7.15,0,11.98.33,14.5.98,2.52.66,4.44,1.73,5.75,3.23,1.31,1.5,2.13,3.17,2.46,5.01.33,1.84.49,5.46.49,10.85v19.93c0,5.11-.24,8.53-.72,10.25-.48,1.72-1.32,3.07-2.51,4.04s-2.67,1.65-4.43,2.04-4.41.58-7.95.58h-18.67v-56.92Zm14.8,9.74v37.44c2.13,0,3.45-.43,3.94-1.28s.74-3.18.74-6.98v-22.11c0-2.58-.08-4.23-.25-4.96-.16-.73-.54-1.26-1.12-1.6-.59-.34-1.69-.51-3.3-.51Z"/>
    <path d="m212.61,141.19v45.53h9v11.39h-23.8v-56.92h14.8Z"/>
    <path d="m252.58,141.19l8.46,56.92h-15.13l-.79-10.23h-5.29l-.89,10.23h-15.3l7.55-56.92h21.39Zm-7.84,36.6c-.75-6.45-1.5-14.42-2.25-23.91-1.51,10.9-2.46,18.87-2.84,23.91h5.09Z"/>
  </g>
</svg>